<svg xmlns="http://www.w3.org/2000/svg" xmlns:xlink="http://www.w3.org/1999/xlink" width="2000" zoomAndPan="magnify" viewBox="0 0 1500 299.999988" height="400" preserveAspectRatio="xMidYMid meet" version="1.0"><defs><g/></defs><g fill="#ffffff" fill-opacity="1"><g transform="translate(72.060291, 228.346028)"><g><path d="M 111.136719 -72.636719 C 130.386719 -75.613281 148.445312 -86.726562 148.445312 -108.160156 C 148.445312 -128.601562 131.972656 -144.875 87.320312 -144.875 L 4.960938 -144.875 L 4.960938 0 L 87.320312 0 C 135.945312 0 152.21875 -16.472656 152.21875 -36.714844 C 152.21875 -57.949219 130.785156 -69.261719 111.136719 -72.238281 Z M 77.992188 -96.054688 C 82.558594 -96.054688 84.144531 -94.464844 84.144531 -91.6875 C 84.144531 -88.910156 82.558594 -87.320312 77.992188 -87.320312 L 65.886719 -87.320312 L 65.886719 -96.054688 Z M 65.886719 -48.820312 L 65.886719 -57.550781 L 77.992188 -57.550781 C 83.152344 -57.550781 84.742188 -55.964844 84.742188 -53.1875 C 84.742188 -50.40625 83.152344 -48.820312 77.992188 -48.820312 Z M 65.886719 -48.820312 "/></g></g></g><g fill="#ffffff" fill-opacity="1"><g transform="translate(225.269191, 228.346028)"><g><path d="M 118.875 0 L 118.875 -61.523438 L 72.832031 -61.523438 L 72.832031 -144.875 L 4.960938 -144.875 L 4.960938 0 Z M 118.875 0 "/></g></g></g><g fill="#ffffff" fill-opacity="1"><g transform="translate(346.129605, 228.346028)"><g><path d="M 110.34375 -144.875 L 30.960938 -144.875 L -7.9375 0 L 55.566406 0 L 57.949219 -14.488281 L 83.351562 -14.488281 L 85.734375 0 L 149.4375 0 Z M 76.007812 -58.148438 L 65.292969 -58.148438 L 70.652344 -89.703125 Z M 76.007812 -58.148438 "/></g></g></g><g fill="#ffffff" fill-opacity="1"><g transform="translate(487.629566, 228.346028)"><g><path d="M 1.984375 -67.277344 C 1.984375 -24.609375 30.5625 3.96875 79.183594 3.96875 C 128.601562 3.96875 155.390625 -22.625 156.78125 -68.46875 L 87.320312 -68.46875 C 86.925781 -55.371094 84.542969 -52.988281 79.382812 -52.988281 C 74.023438 -52.988281 71.445312 -55.566406 71.445312 -68.269531 L 71.445312 -76.605469 C 71.445312 -89.304688 74.023438 -91.886719 79.382812 -91.886719 C 84.542969 -91.886719 87.121094 -89.304688 87.320312 -76.40625 L 156.78125 -76.40625 C 155.390625 -122.25 128.601562 -148.84375 79.183594 -148.84375 C 30.5625 -148.84375 1.984375 -120.265625 1.984375 -77.398438 Z M 1.984375 -67.277344 "/></g></g></g><g fill="#ffffff" fill-opacity="1"><g transform="translate(646.196781, 228.346028)"><g><path d="M 162.339844 0 L 129.59375 -82.558594 L 162.339844 -144.875 L 88.511719 -144.875 L 70.054688 -98.039062 L 70.054688 -144.875 L 4.960938 -144.875 L 4.960938 0 L 70.054688 0 L 70.054688 -40.089844 L 72.832031 -47.429688 L 90.101562 0 Z M 162.339844 0 "/></g></g></g><g fill="#ffffff" fill-opacity="1"><g transform="translate(804.565606, 228.346028)"><g/></g></g><g fill="#ffffff" fill-opacity="1"><g transform="translate(856.164448, 228.346028)"><g><path d="M 82.359375 -100.816406 L 72.4375 -100.816406 L 72.4375 -144.875 L 4.960938 -144.875 L 4.960938 0 L 72.4375 0 L 72.4375 -44.257812 L 82.359375 -44.257812 L 82.359375 0 L 149.835938 0 L 149.835938 -144.875 L 82.359375 -144.875 Z M 82.359375 -100.816406 "/></g></g></g><g fill="#ffffff" fill-opacity="1"><g transform="translate(1010.961068, 228.346028)"><g><path d="M 79.382812 3.96875 C 127.804688 3.96875 156.78125 -25.003906 156.78125 -67.277344 L 156.78125 -77.398438 C 156.78125 -119.867188 127.804688 -148.84375 79.382812 -148.84375 C 30.960938 -148.84375 1.984375 -119.867188 1.984375 -77.398438 L 1.984375 -67.277344 C 1.984375 -25.003906 30.960938 3.96875 79.382812 3.96875 Z M 79.382812 -52.988281 C 74.023438 -52.988281 71.445312 -55.371094 71.445312 -68.269531 L 71.445312 -76.605469 C 71.445312 -89.304688 74.023438 -91.886719 79.382812 -91.886719 C 84.742188 -91.886719 87.320312 -89.304688 87.320312 -76.605469 L 87.320312 -68.269531 C 87.320312 -55.371094 84.742188 -52.988281 79.382812 -52.988281 Z M 79.382812 -52.988281 "/></g></g></g><g fill="#ffffff" fill-opacity="1"><g transform="translate(1169.72677, 228.346028)"><g><path d="M 118.875 0 L 118.875 -61.523438 L 72.832031 -61.523438 L 72.832031 -144.875 L 4.960938 -144.875 L 4.960938 0 Z M 118.875 0 "/></g></g></g><g fill="#ffffff" fill-opacity="1"><g transform="translate(1290.587173, 228.346028)"><g><path d="M 132.371094 0 L 132.371094 -47.035156 L 64.695312 -47.035156 L 64.695312 -54.179688 L 132.371094 -54.179688 L 132.371094 -91.09375 L 64.695312 -91.09375 L 64.695312 -98.238281 L 132.371094 -98.238281 L 132.371094 -144.875 L 4.960938 -144.875 L 4.960938 0 Z M 132.371094 0 "/></g></g></g></svg>