<svg xmlns="http://www.w3.org/2000/svg" xmlns:xlink="http://www.w3.org/1999/xlink" width="2000" zoomAndPan="magnify" viewBox="0 0 1500 299.999988" height="400" preserveAspectRatio="xMidYMid meet" version="1.0"><defs><g/></defs><g fill="#ffffff" fill-opacity="1"><g transform="translate(382.349329, 228.346028)"><g><path d="M 132.371094 0 L 132.371094 -47.035156 L 64.695312 -47.035156 L 64.695312 -54.179688 L 132.371094 -54.179688 L 132.371094 -91.09375 L 64.695312 -91.09375 L 64.695312 -98.238281 L 132.371094 -98.238281 L 132.371094 -144.875 L 4.960938 -144.875 L 4.960938 0 Z M 132.371094 0 "/></g></g></g><g fill="#ffffff" fill-opacity="1"><g transform="translate(519.681645, 228.346028)"><g><path d="M 110.34375 -144.875 L 30.960938 -144.875 L -7.9375 0 L 55.566406 0 L 57.949219 -14.488281 L 83.351562 -14.488281 L 85.734375 0 L 149.4375 0 Z M 76.007812 -58.148438 L 65.292969 -58.148438 L 70.652344 -89.703125 Z M 76.007812 -58.148438 "/></g></g></g><g fill="#ffffff" fill-opacity="1"><g transform="translate(661.181606, 228.346028)"><g><path d="M 149.4375 -30.960938 C 149.4375 -51.402344 139.117188 -62.316406 115.699219 -65.292969 L 115.699219 -65.6875 C 134.15625 -68.667969 152.019531 -80.574219 152.019531 -104.191406 C 152.019531 -127.011719 133.957031 -144.875 90.101562 -144.875 L 4.960938 -144.875 L 4.960938 0 L 68.863281 0 L 68.863281 -43.660156 L 72.238281 -43.660156 C 77.199219 -43.660156 78.789062 -42.074219 78.789062 -32.347656 L 78.789062 -14.882812 C 78.789062 -7.144531 80.175781 -2.976562 83.152344 0 L 153.605469 0 C 150.429688 -3.769531 149.4375 -7.9375 149.4375 -14.882812 Z M 68.863281 -82.558594 L 68.863281 -93.671875 L 77.796875 -93.671875 C 83.550781 -93.671875 85.335938 -91.886719 85.335938 -87.917969 C 85.335938 -84.34375 83.550781 -82.558594 77.796875 -82.558594 Z M 68.863281 -82.558594 "/></g></g></g><g fill="#ffffff" fill-opacity="1"><g transform="translate(814.787466, 228.346028)"><g><path d="M 39.691406 -86.328125 L 39.691406 0 L 108.359375 0 L 108.359375 -86.328125 L 146.066406 -86.328125 L 146.066406 -144.875 L 1.984375 -144.875 L 1.984375 -86.328125 Z M 39.691406 -86.328125 "/></g></g></g><g fill="#ffffff" fill-opacity="1"><g transform="translate(962.836464, 228.346028)"><g><path d="M 82.359375 -100.816406 L 72.4375 -100.816406 L 72.4375 -144.875 L 4.960938 -144.875 L 4.960938 0 L 72.4375 0 L 72.4375 -44.257812 L 82.359375 -44.257812 L 82.359375 0 L 149.835938 0 L 149.835938 -144.875 L 82.359375 -144.875 Z M 82.359375 -100.816406 "/></g></g></g></svg>