<svg xmlns="http://www.w3.org/2000/svg" xmlns:xlink="http://www.w3.org/1999/xlink" width="2000" zoomAndPan="magnify" viewBox="0 0 1500 299.999988" height="400" preserveAspectRatio="xMidYMid meet" version="1.0"><defs><g/></defs><g fill="#ffffff" fill-opacity="1"><g transform="translate(23.082958, 212.187396)"><g><path d="M 75.445312 -73.273438 L 67.21875 -113.324219 L 3.882812 -113.324219 L 3.882812 0 L 49.367188 0 L 48.746094 -64.578125 L 63.335938 0 L 87.398438 0 L 101.835938 -64.425781 L 99.820312 0 L 146.855469 0 L 146.855469 -113.324219 L 83.519531 -113.324219 Z M 75.445312 -73.273438 "/></g></g></g><g fill="#ffffff" fill-opacity="1"><g transform="translate(173.820466, 212.187396)"><g><path d="M 103.542969 0 L 103.542969 -36.792969 L 50.609375 -36.792969 L 50.609375 -42.378906 L 103.542969 -42.378906 L 103.542969 -71.253906 L 50.609375 -71.253906 L 50.609375 -76.84375 L 103.542969 -76.84375 L 103.542969 -113.324219 L 3.882812 -113.324219 L 3.882812 0 Z M 103.542969 0 "/></g></g></g><g fill="#ffffff" fill-opacity="1"><g transform="translate(281.246155, 212.187396)"><g><path d="M 69.703125 -42.691406 C 69.546875 -37.414062 67.527344 -35.394531 63.027344 -35.394531 C 57.90625 -35.394531 55.574219 -37.722656 55.574219 -49.988281 L 55.574219 -60.386719 C 55.574219 -72.03125 57.75 -74.203125 62.40625 -74.203125 C 66.132812 -74.203125 67.996094 -72.339844 68.304688 -69.703125 L 123.261719 -69.703125 C 121.707031 -96.714844 101.992188 -116.429688 63.027344 -116.429688 C 24.0625 -116.429688 1.550781 -93.921875 1.550781 -59.921875 L 1.550781 -51.230469 C 1.550781 -14.59375 19.25 3.105469 45.949219 3.105469 C 66.289062 3.105469 78.863281 -5.589844 82.898438 -26.082031 L 96.871094 0 L 123.261719 0 L 123.261719 -64.578125 L 60.234375 -64.578125 L 60.234375 -42.691406 Z M 69.703125 -42.691406 "/></g></g></g><g fill="#ffffff" fill-opacity="1"><g transform="translate(408.076798, 212.187396)"><g><path d="M 76.222656 -67.21875 L 60.542969 -113.324219 L 3.882812 -113.324219 L 3.882812 0 L 49.832031 0 L 49.367188 -50.761719 L 68.925781 0 L 121.707031 0 L 121.707031 -113.324219 L 75.757812 -113.324219 Z M 76.222656 -67.21875 "/></g></g></g><g fill="#ffffff" fill-opacity="1"><g transform="translate(533.665506, 212.187396)"><g><path d="M 86.3125 -113.324219 L 24.21875 -113.324219 L -6.210938 0 L 43.46875 0 L 45.328125 -11.332031 L 65.199219 -11.332031 L 67.0625 0 L 116.894531 0 Z M 59.457031 -45.484375 L 51.074219 -45.484375 L 55.265625 -70.167969 Z M 59.457031 -45.484375 "/></g></g></g><g fill="#ffffff" fill-opacity="1"><g transform="translate(644.351217, 212.187396)"><g><path d="M 31.046875 -67.527344 L 31.046875 0 L 84.761719 0 L 84.761719 -67.527344 L 114.257812 -67.527344 L 114.257812 -113.324219 L 1.550781 -113.324219 L 1.550781 -67.527344 Z M 31.046875 -67.527344 "/></g></g></g><g fill="#ffffff" fill-opacity="1"><g transform="translate(760.159833, 212.187396)"><g><path d="M 57.75 -113.324219 L 3.882812 -113.324219 L 3.882812 0 L 57.75 0 Z M 57.75 -113.324219 "/></g></g></g><g fill="#ffffff" fill-opacity="1"><g transform="translate(821.789935, 212.187396)"><g><path d="M 1.550781 -52.625 C 1.550781 -19.25 23.90625 3.105469 61.941406 3.105469 C 100.59375 3.105469 121.550781 -17.699219 122.640625 -53.558594 L 68.304688 -53.558594 C 67.996094 -43.3125 66.132812 -41.449219 62.097656 -41.449219 C 57.90625 -41.449219 55.886719 -43.46875 55.886719 -53.402344 L 55.886719 -59.921875 C 55.886719 -69.859375 57.90625 -71.875 62.097656 -71.875 C 66.132812 -71.875 68.148438 -69.859375 68.304688 -59.765625 L 122.640625 -59.765625 C 121.550781 -95.628906 100.59375 -116.429688 61.941406 -116.429688 C 23.90625 -116.429688 1.550781 -94.074219 1.550781 -60.542969 Z M 1.550781 -52.625 "/></g></g></g><g fill="#ffffff" fill-opacity="1"><g transform="translate(945.826234, 212.187396)"><g/></g></g><g fill="#ffffff" fill-opacity="1"><g transform="translate(986.188483, 212.187396)"><g><path d="M 102.925781 -113.324219 L 3.882812 -113.324219 L 3.882812 0 L 52.78125 0 L 52.78125 -28.71875 L 102.925781 -28.71875 L 102.925781 -67.527344 L 52.78125 -67.527344 L 52.78125 -73.738281 L 102.925781 -73.738281 Z M 102.925781 -113.324219 "/></g></g></g><g fill="#ffffff" fill-opacity="1"><g transform="translate(1092.217008, 212.187396)"><g><path d="M 103.542969 0 L 103.542969 -36.792969 L 50.609375 -36.792969 L 50.609375 -42.378906 L 103.542969 -42.378906 L 103.542969 -71.253906 L 50.609375 -71.253906 L 50.609375 -76.84375 L 103.542969 -76.84375 L 103.542969 -113.324219 L 3.882812 -113.324219 L 3.882812 0 Z M 103.542969 0 "/></g></g></g><g fill="#ffffff" fill-opacity="1"><g transform="translate(1199.642679, 212.187396)"><g><path d="M 57.75 -113.324219 L 3.882812 -113.324219 L 3.882812 0 L 57.75 0 Z M 57.75 -113.324219 "/></g></g></g><g fill="#ffffff" fill-opacity="1"><g transform="translate(1261.27271, 212.187396)"><g><path d="M 92.988281 0 L 92.988281 -48.125 L 56.972656 -48.125 L 56.972656 -113.324219 L 3.882812 -113.324219 L 3.882812 0 Z M 92.988281 0 "/></g></g></g><g fill="#ffffff" fill-opacity="1"><g transform="translate(1355.813546, 212.187396)"><g><path d="M 3.882812 -113.324219 L 3.882812 0 L 58.679688 0 C 97.800781 0 120.3125 -22.507812 120.3125 -52.160156 L 120.3125 -61.007812 C 120.3125 -90.816406 97.800781 -113.324219 58.679688 -113.324219 Z M 67.21875 -53.402344 C 67.21875 -46.726562 63.957031 -43.46875 58.214844 -43.46875 L 54.644531 -43.46875 L 54.644531 -69.859375 L 58.214844 -69.859375 C 63.957031 -69.859375 67.21875 -66.597656 67.21875 -59.921875 Z M 67.21875 -53.402344 "/></g></g></g></svg>