<svg xmlns="http://www.w3.org/2000/svg" xmlns:xlink="http://www.w3.org/1999/xlink" width="2000" zoomAndPan="magnify" viewBox="0 0 1500 299.999988" height="400" preserveAspectRatio="xMidYMid meet" version="1.0"><defs><g/></defs><g fill="#ffffff" fill-opacity="1"><g transform="translate(265.255588, 228.346028)"><g><path d="M 0 -63.308594 C 0 -18.257812 22.226562 3.96875 71.839844 3.96875 C 119.867188 3.96875 142.292969 -18.257812 142.292969 -53.386719 L 142.292969 -144.875 L 5.359375 -144.875 L 5.359375 -87.121094 L 76.605469 -87.121094 L 76.605469 -60.925781 C 76.605469 -55.566406 74.820312 -53.78125 71.839844 -53.78125 C 68.667969 -53.78125 66.683594 -55.765625 66.683594 -63.308594 Z M 0 -63.308594 "/></g></g></g><g fill="#ffffff" fill-opacity="1"><g transform="translate(412.113886, 228.346028)"><g><path d="M 4.566406 -52.789062 C 4.566406 -19.449219 28.179688 3.96875 77 3.96875 C 125.820312 3.96875 149.4375 -19.449219 149.4375 -52.789062 L 149.4375 -144.875 L 81.964844 -144.875 L 81.964844 -61.917969 C 81.964844 -55.964844 79.976562 -53.980469 77 -53.980469 C 74.023438 -53.980469 72.039062 -55.964844 72.039062 -61.917969 L 72.039062 -144.875 L 4.566406 -144.875 Z M 4.566406 -52.789062 "/></g></g></g><g fill="#ffffff" fill-opacity="1"><g transform="translate(566.116616, 228.346028)"><g><path d="M 4.960938 -144.875 L 4.960938 0 L 68.667969 0 L 68.667969 -32.546875 L 82.757812 -32.546875 C 131.578125 -32.546875 149.835938 -51.003906 149.835938 -88.910156 C 149.835938 -126.8125 131.578125 -144.875 82.757812 -144.875 Z M 68.667969 -81.765625 L 68.667969 -93.671875 L 77.597656 -93.671875 C 82.558594 -93.671875 84.34375 -91.886719 84.34375 -87.71875 C 84.34375 -83.550781 82.558594 -81.765625 77.597656 -81.765625 Z M 68.667969 -81.765625 "/></g></g></g><g fill="#ffffff" fill-opacity="1"><g transform="translate(716.944056, 228.346028)"><g><path d="M 73.828125 -144.875 L 4.960938 -144.875 L 4.960938 0 L 73.828125 0 Z M 73.828125 -144.875 "/></g></g></g><g fill="#ffffff" fill-opacity="1"><g transform="translate(795.731541, 228.346028)"><g><path d="M 39.691406 -86.328125 L 39.691406 0 L 108.359375 0 L 108.359375 -86.328125 L 146.066406 -86.328125 L 146.066406 -144.875 L 1.984375 -144.875 L 1.984375 -86.328125 Z M 39.691406 -86.328125 "/></g></g></g><g fill="#ffffff" fill-opacity="1"><g transform="translate(943.780539, 228.346028)"><g><path d="M 132.371094 0 L 132.371094 -47.035156 L 64.695312 -47.035156 L 64.695312 -54.179688 L 132.371094 -54.179688 L 132.371094 -91.09375 L 64.695312 -91.09375 L 64.695312 -98.238281 L 132.371094 -98.238281 L 132.371094 -144.875 L 4.960938 -144.875 L 4.960938 0 Z M 132.371094 0 "/></g></g></g><g fill="#ffffff" fill-opacity="1"><g transform="translate(1081.112877, 228.346028)"><g><path d="M 149.4375 -30.960938 C 149.4375 -51.402344 139.117188 -62.316406 115.699219 -65.292969 L 115.699219 -65.6875 C 134.15625 -68.667969 152.019531 -80.574219 152.019531 -104.191406 C 152.019531 -127.011719 133.957031 -144.875 90.101562 -144.875 L 4.960938 -144.875 L 4.960938 0 L 68.863281 0 L 68.863281 -43.660156 L 72.238281 -43.660156 C 77.199219 -43.660156 78.789062 -42.074219 78.789062 -32.347656 L 78.789062 -14.882812 C 78.789062 -7.144531 80.175781 -2.976562 83.152344 0 L 153.605469 0 C 150.429688 -3.769531 149.4375 -7.9375 149.4375 -14.882812 Z M 68.863281 -82.558594 L 68.863281 -93.671875 L 77.796875 -93.671875 C 83.550781 -93.671875 85.335938 -91.886719 85.335938 -87.917969 C 85.335938 -84.34375 83.550781 -82.558594 77.796875 -82.558594 Z M 68.863281 -82.558594 "/></g></g></g></svg>