<svg xmlns="http://www.w3.org/2000/svg" xmlns:xlink="http://www.w3.org/1999/xlink" width="2000" zoomAndPan="magnify" viewBox="0 0 1500 299.999988" height="400" preserveAspectRatio="xMidYMid meet" version="1.0"><defs><g/></defs><g fill="#ffffff" fill-opacity="1"><g transform="translate(15.693108, 228.346028)"><g><path d="M 1.585938 -51.402344 C 2.578125 -17.464844 23.21875 3.96875 79.183594 3.96875 C 135.746094 3.96875 156.382812 -16.472656 156.382812 -44.257812 C 156.382812 -70.453125 141.898438 -85.535156 83.75 -90.894531 C 71.644531 -92.085938 69.460938 -94.464844 69.460938 -97.046875 C 69.460938 -99.425781 71.445312 -101.410156 77 -101.410156 C 83.351562 -101.410156 86.128906 -98.632812 86.328125 -94.070312 L 154.203125 -94.070312 C 152.8125 -124.632812 130.1875 -148.84375 78.589844 -148.84375 C 23.617188 -148.84375 2.777344 -127.410156 2.777344 -101.410156 C 2.777344 -75.414062 16.867188 -59.734375 73.628906 -54.378906 C 86.128906 -53.1875 88.511719 -50.605469 88.511719 -48.027344 C 88.511719 -45.644531 86.328125 -43.460938 80.574219 -43.460938 C 74.023438 -43.460938 71.246094 -46.242188 71.246094 -51.402344 Z M 1.585938 -51.402344 "/></g></g></g><g fill="#ffffff" fill-opacity="1"><g transform="translate(174.061911, 228.346028)"><g><path d="M 4.960938 -144.875 L 4.960938 0 L 68.667969 0 L 68.667969 -32.546875 L 82.757812 -32.546875 C 131.578125 -32.546875 149.835938 -51.003906 149.835938 -88.910156 C 149.835938 -126.8125 131.578125 -144.875 82.757812 -144.875 Z M 68.667969 -81.765625 L 68.667969 -93.671875 L 77.597656 -93.671875 C 82.558594 -93.671875 84.34375 -91.886719 84.34375 -87.71875 C 84.34375 -83.550781 82.558594 -81.765625 77.597656 -81.765625 Z M 68.667969 -81.765625 "/></g></g></g><g fill="#ffffff" fill-opacity="1"><g transform="translate(324.889351, 228.346028)"><g><path d="M 110.34375 -144.875 L 30.960938 -144.875 L -7.9375 0 L 55.566406 0 L 57.949219 -14.488281 L 83.351562 -14.488281 L 85.734375 0 L 149.4375 0 Z M 76.007812 -58.148438 L 65.292969 -58.148438 L 70.652344 -89.703125 Z M 76.007812 -58.148438 "/></g></g></g><g fill="#ffffff" fill-opacity="1"><g transform="translate(466.389334, 228.346028)"><g><path d="M 1.984375 -67.277344 C 1.984375 -24.609375 30.5625 3.96875 79.183594 3.96875 C 128.601562 3.96875 155.390625 -22.625 156.78125 -68.46875 L 87.320312 -68.46875 C 86.925781 -55.371094 84.542969 -52.988281 79.382812 -52.988281 C 74.023438 -52.988281 71.445312 -55.566406 71.445312 -68.269531 L 71.445312 -76.605469 C 71.445312 -89.304688 74.023438 -91.886719 79.382812 -91.886719 C 84.542969 -91.886719 87.121094 -89.304688 87.320312 -76.40625 L 156.78125 -76.40625 C 155.390625 -122.25 128.601562 -148.84375 79.183594 -148.84375 C 30.5625 -148.84375 1.984375 -120.265625 1.984375 -77.398438 Z M 1.984375 -67.277344 "/></g></g></g><g fill="#ffffff" fill-opacity="1"><g transform="translate(624.956549, 228.346028)"><g><path d="M 132.371094 0 L 132.371094 -47.035156 L 64.695312 -47.035156 L 64.695312 -54.179688 L 132.371094 -54.179688 L 132.371094 -91.09375 L 64.695312 -91.09375 L 64.695312 -98.238281 L 132.371094 -98.238281 L 132.371094 -144.875 L 4.960938 -144.875 L 4.960938 0 Z M 132.371094 0 "/></g></g></g><g fill="#ffffff" fill-opacity="1"><g transform="translate(762.288842, 228.346028)"><g/></g></g><g fill="#ffffff" fill-opacity="1"><g transform="translate(813.887685, 228.346028)"><g><path d="M 89.105469 -54.574219 C 88.910156 -47.828125 86.328125 -45.25 80.574219 -45.25 C 74.023438 -45.25 71.046875 -48.226562 71.046875 -63.902344 L 71.046875 -77.199219 C 71.046875 -92.085938 73.828125 -94.863281 79.78125 -94.863281 C 84.542969 -94.863281 86.925781 -92.480469 87.320312 -89.105469 L 157.574219 -89.105469 C 155.589844 -123.640625 130.386719 -148.84375 80.574219 -148.84375 C 30.761719 -148.84375 1.984375 -120.066406 1.984375 -76.605469 L 1.984375 -65.492188 C 1.984375 -18.65625 24.609375 3.96875 58.742188 3.96875 C 84.742188 3.96875 100.816406 -7.144531 105.976562 -33.339844 L 123.835938 0 L 157.574219 0 L 157.574219 -82.558594 L 77 -82.558594 L 77 -54.574219 Z M 89.105469 -54.574219 "/></g></g></g><g fill="#ffffff" fill-opacity="1"><g transform="translate(976.027202, 228.346028)"><g><path d="M 118.875 0 L 118.875 -61.523438 L 72.832031 -61.523438 L 72.832031 -144.875 L 4.960938 -144.875 L 4.960938 0 Z M 118.875 0 "/></g></g></g><g fill="#ffffff" fill-opacity="1"><g transform="translate(1096.887604, 228.346028)"><g><path d="M 73.828125 -144.875 L 4.960938 -144.875 L 4.960938 0 L 73.828125 0 Z M 73.828125 -144.875 "/></g></g></g><g fill="#ffffff" fill-opacity="1"><g transform="translate(1175.675135, 228.346028)"><g><path d="M 97.441406 -85.933594 L 77.398438 -144.875 L 4.960938 -144.875 L 4.960938 0 L 63.703125 0 L 63.109375 -64.894531 L 88.113281 0 L 155.589844 0 L 155.589844 -144.875 L 96.847656 -144.875 Z M 97.441406 -85.933594 "/></g></g></g><g fill="#ffffff" fill-opacity="1"><g transform="translate(1336.226939, 228.346028)"><g><path d="M 39.691406 -86.328125 L 39.691406 0 L 108.359375 0 L 108.359375 -86.328125 L 146.066406 -86.328125 L 146.066406 -144.875 L 1.984375 -144.875 L 1.984375 -86.328125 Z M 39.691406 -86.328125 "/></g></g></g></svg>