<svg xmlns="http://www.w3.org/2000/svg" xmlns:xlink="http://www.w3.org/1999/xlink" width="2000" zoomAndPan="magnify" viewBox="0 0 1500 299.999988" height="400" preserveAspectRatio="xMidYMid meet" version="1.0"><defs><g/></defs><g fill="#ffffff" fill-opacity="1"><g transform="translate(205.525128, 228.346028)"><g><path d="M 96.449219 -93.671875 L 85.933594 -144.875 L 4.960938 -144.875 L 4.960938 0 L 63.109375 0 L 62.316406 -82.558594 L 80.96875 0 L 111.730469 0 L 130.1875 -82.359375 L 127.609375 0 L 187.742188 0 L 187.742188 -144.875 L 106.769531 -144.875 Z M 96.449219 -93.671875 "/></g></g></g><g fill="#ffffff" fill-opacity="1"><g transform="translate(398.227, 228.346028)"><g><path d="M 132.371094 0 L 132.371094 -47.035156 L 64.695312 -47.035156 L 64.695312 -54.179688 L 132.371094 -54.179688 L 132.371094 -91.09375 L 64.695312 -91.09375 L 64.695312 -98.238281 L 132.371094 -98.238281 L 132.371094 -144.875 L 4.960938 -144.875 L 4.960938 0 Z M 132.371094 0 "/></g></g></g><g fill="#ffffff" fill-opacity="1"><g transform="translate(535.559316, 228.346028)"><g><path d="M 149.4375 -30.960938 C 149.4375 -51.402344 139.117188 -62.316406 115.699219 -65.292969 L 115.699219 -65.6875 C 134.15625 -68.667969 152.019531 -80.574219 152.019531 -104.191406 C 152.019531 -127.011719 133.957031 -144.875 90.101562 -144.875 L 4.960938 -144.875 L 4.960938 0 L 68.863281 0 L 68.863281 -43.660156 L 72.238281 -43.660156 C 77.199219 -43.660156 78.789062 -42.074219 78.789062 -32.347656 L 78.789062 -14.882812 C 78.789062 -7.144531 80.175781 -2.976562 83.152344 0 L 153.605469 0 C 150.429688 -3.769531 149.4375 -7.9375 149.4375 -14.882812 Z M 68.863281 -82.558594 L 68.863281 -93.671875 L 77.796875 -93.671875 C 83.550781 -93.671875 85.335938 -91.886719 85.335938 -87.917969 C 85.335938 -84.34375 83.550781 -82.558594 77.796875 -82.558594 Z M 68.863281 -82.558594 "/></g></g></g><g fill="#ffffff" fill-opacity="1"><g transform="translate(689.165131, 228.346028)"><g><path d="M 1.984375 -67.277344 C 1.984375 -24.609375 30.5625 3.96875 79.183594 3.96875 C 128.601562 3.96875 155.390625 -22.625 156.78125 -68.46875 L 87.320312 -68.46875 C 86.925781 -55.371094 84.542969 -52.988281 79.382812 -52.988281 C 74.023438 -52.988281 71.445312 -55.566406 71.445312 -68.269531 L 71.445312 -76.605469 C 71.445312 -89.304688 74.023438 -91.886719 79.382812 -91.886719 C 84.542969 -91.886719 87.121094 -89.304688 87.320312 -76.40625 L 156.78125 -76.40625 C 155.390625 -122.25 128.601562 -148.84375 79.183594 -148.84375 C 30.5625 -148.84375 1.984375 -120.265625 1.984375 -77.398438 Z M 1.984375 -67.277344 "/></g></g></g><g fill="#ffffff" fill-opacity="1"><g transform="translate(847.732346, 228.346028)"><g><path d="M 4.566406 -52.789062 C 4.566406 -19.449219 28.179688 3.96875 77 3.96875 C 125.820312 3.96875 149.4375 -19.449219 149.4375 -52.789062 L 149.4375 -144.875 L 81.964844 -144.875 L 81.964844 -61.917969 C 81.964844 -55.964844 79.976562 -53.980469 77 -53.980469 C 74.023438 -53.980469 72.039062 -55.964844 72.039062 -61.917969 L 72.039062 -144.875 L 4.566406 -144.875 Z M 4.566406 -52.789062 "/></g></g></g><g fill="#ffffff" fill-opacity="1"><g transform="translate(1001.735015, 228.346028)"><g><path d="M 149.4375 -30.960938 C 149.4375 -51.402344 139.117188 -62.316406 115.699219 -65.292969 L 115.699219 -65.6875 C 134.15625 -68.667969 152.019531 -80.574219 152.019531 -104.191406 C 152.019531 -127.011719 133.957031 -144.875 90.101562 -144.875 L 4.960938 -144.875 L 4.960938 0 L 68.863281 0 L 68.863281 -43.660156 L 72.238281 -43.660156 C 77.199219 -43.660156 78.789062 -42.074219 78.789062 -32.347656 L 78.789062 -14.882812 C 78.789062 -7.144531 80.175781 -2.976562 83.152344 0 L 153.605469 0 C 150.429688 -3.769531 149.4375 -7.9375 149.4375 -14.882812 Z M 68.863281 -82.558594 L 68.863281 -93.671875 L 77.796875 -93.671875 C 83.550781 -93.671875 85.335938 -91.886719 85.335938 -87.917969 C 85.335938 -84.34375 83.550781 -82.558594 77.796875 -82.558594 Z M 68.863281 -82.558594 "/></g></g></g><g fill="#ffffff" fill-opacity="1"><g transform="translate(1155.340898, 228.346028)"><g><path d="M 77.597656 -144.875 L 69.660156 -107.960938 L 61.523438 -144.875 L -8.929688 -144.875 L 35.921875 -37.90625 L 35.921875 0 L 103.394531 0 L 103.394531 -37.90625 L 148.050781 -144.875 Z M 77.597656 -144.875 "/></g></g></g></svg>