<svg xmlns="http://www.w3.org/2000/svg" xmlns:xlink="http://www.w3.org/1999/xlink" width="2000" zoomAndPan="magnify" viewBox="0 0 1500 299.999988" height="400" preserveAspectRatio="xMidYMid meet" version="1.0"><defs><g/></defs><g fill="#ffffff" fill-opacity="1"><g transform="translate(414.599326, 228.346028)"><g><path d="M 96.449219 -93.671875 L 85.933594 -144.875 L 4.960938 -144.875 L 4.960938 0 L 63.109375 0 L 62.316406 -82.558594 L 80.96875 0 L 111.730469 0 L 130.1875 -82.359375 L 127.609375 0 L 187.742188 0 L 187.742188 -144.875 L 106.769531 -144.875 Z M 96.449219 -93.671875 "/></g></g></g><g fill="#ffffff" fill-opacity="1"><g transform="translate(607.301198, 228.346028)"><g><path d="M 79.382812 3.96875 C 127.804688 3.96875 156.78125 -25.003906 156.78125 -67.277344 L 156.78125 -77.398438 C 156.78125 -119.867188 127.804688 -148.84375 79.382812 -148.84375 C 30.960938 -148.84375 1.984375 -119.867188 1.984375 -77.398438 L 1.984375 -67.277344 C 1.984375 -25.003906 30.960938 3.96875 79.382812 3.96875 Z M 79.382812 -52.988281 C 74.023438 -52.988281 71.445312 -55.371094 71.445312 -68.269531 L 71.445312 -76.605469 C 71.445312 -89.304688 74.023438 -91.886719 79.382812 -91.886719 C 84.742188 -91.886719 87.320312 -89.304688 87.320312 -76.605469 L 87.320312 -68.269531 C 87.320312 -55.371094 84.742188 -52.988281 79.382812 -52.988281 Z M 79.382812 -52.988281 "/></g></g></g><g fill="#ffffff" fill-opacity="1"><g transform="translate(766.066945, 228.346028)"><g><path d="M 79.382812 3.96875 C 127.804688 3.96875 156.78125 -25.003906 156.78125 -67.277344 L 156.78125 -77.398438 C 156.78125 -119.867188 127.804688 -148.84375 79.382812 -148.84375 C 30.960938 -148.84375 1.984375 -119.867188 1.984375 -77.398438 L 1.984375 -67.277344 C 1.984375 -25.003906 30.960938 3.96875 79.382812 3.96875 Z M 79.382812 -52.988281 C 74.023438 -52.988281 71.445312 -55.371094 71.445312 -68.269531 L 71.445312 -76.605469 C 71.445312 -89.304688 74.023438 -91.886719 79.382812 -91.886719 C 84.742188 -91.886719 87.320312 -89.304688 87.320312 -76.605469 L 87.320312 -68.269531 C 87.320312 -55.371094 84.742188 -52.988281 79.382812 -52.988281 Z M 79.382812 -52.988281 "/></g></g></g><g fill="#ffffff" fill-opacity="1"><g transform="translate(924.832692, 228.346028)"><g><path d="M 97.441406 -85.933594 L 77.398438 -144.875 L 4.960938 -144.875 L 4.960938 0 L 63.703125 0 L 63.109375 -64.894531 L 88.113281 0 L 155.589844 0 L 155.589844 -144.875 L 96.847656 -144.875 Z M 97.441406 -85.933594 "/></g></g></g></svg>