<svg xmlns="http://www.w3.org/2000/svg" xmlns:xlink="http://www.w3.org/1999/xlink" width="2000" zoomAndPan="magnify" viewBox="0 0 1500 299.999988" height="400" preserveAspectRatio="xMidYMid meet" version="1.0"><defs><g/></defs><g fill="#ffffff" fill-opacity="1"><g transform="translate(225.669654, 228.346028)"><g><path d="M 97.441406 -85.933594 L 77.398438 -144.875 L 4.960938 -144.875 L 4.960938 0 L 63.703125 0 L 63.109375 -64.894531 L 88.113281 0 L 155.589844 0 L 155.589844 -144.875 L 96.847656 -144.875 Z M 97.441406 -85.933594 "/></g></g></g><g fill="#ffffff" fill-opacity="1"><g transform="translate(386.221473, 228.346028)"><g><path d="M 132.371094 0 L 132.371094 -47.035156 L 64.695312 -47.035156 L 64.695312 -54.179688 L 132.371094 -54.179688 L 132.371094 -91.09375 L 64.695312 -91.09375 L 64.695312 -98.238281 L 132.371094 -98.238281 L 132.371094 -144.875 L 4.960938 -144.875 L 4.960938 0 Z M 132.371094 0 "/></g></g></g><g fill="#ffffff" fill-opacity="1"><g transform="translate(523.553804, 228.346028)"><g><path d="M 4.960938 -144.875 L 4.960938 0 L 68.667969 0 L 68.667969 -32.546875 L 82.757812 -32.546875 C 131.578125 -32.546875 149.835938 -51.003906 149.835938 -88.910156 C 149.835938 -126.8125 131.578125 -144.875 82.757812 -144.875 Z M 68.667969 -81.765625 L 68.667969 -93.671875 L 77.597656 -93.671875 C 82.558594 -93.671875 84.34375 -91.886719 84.34375 -87.71875 C 84.34375 -83.550781 82.558594 -81.765625 77.597656 -81.765625 Z M 68.667969 -81.765625 "/></g></g></g><g fill="#ffffff" fill-opacity="1"><g transform="translate(674.381245, 228.346028)"><g><path d="M 39.691406 -86.328125 L 39.691406 0 L 108.359375 0 L 108.359375 -86.328125 L 146.066406 -86.328125 L 146.066406 -144.875 L 1.984375 -144.875 L 1.984375 -86.328125 Z M 39.691406 -86.328125 "/></g></g></g><g fill="#ffffff" fill-opacity="1"><g transform="translate(822.430243, 228.346028)"><g><path d="M 4.566406 -52.789062 C 4.566406 -19.449219 28.179688 3.96875 77 3.96875 C 125.820312 3.96875 149.4375 -19.449219 149.4375 -52.789062 L 149.4375 -144.875 L 81.964844 -144.875 L 81.964844 -61.917969 C 81.964844 -55.964844 79.976562 -53.980469 77 -53.980469 C 74.023438 -53.980469 72.039062 -55.964844 72.039062 -61.917969 L 72.039062 -144.875 L 4.566406 -144.875 Z M 4.566406 -52.789062 "/></g></g></g><g fill="#ffffff" fill-opacity="1"><g transform="translate(976.432965, 228.346028)"><g><path d="M 97.441406 -85.933594 L 77.398438 -144.875 L 4.960938 -144.875 L 4.960938 0 L 63.703125 0 L 63.109375 -64.894531 L 88.113281 0 L 155.589844 0 L 155.589844 -144.875 L 96.847656 -144.875 Z M 97.441406 -85.933594 "/></g></g></g><g fill="#ffffff" fill-opacity="1"><g transform="translate(1136.984769, 228.346028)"><g><path d="M 132.371094 0 L 132.371094 -47.035156 L 64.695312 -47.035156 L 64.695312 -54.179688 L 132.371094 -54.179688 L 132.371094 -91.09375 L 64.695312 -91.09375 L 64.695312 -98.238281 L 132.371094 -98.238281 L 132.371094 -144.875 L 4.960938 -144.875 L 4.960938 0 Z M 132.371094 0 "/></g></g></g></svg>