<svg xmlns="http://www.w3.org/2000/svg" xmlns:xlink="http://www.w3.org/1999/xlink" width="2000" zoomAndPan="magnify" viewBox="0 0 1500 299.999988" height="400" preserveAspectRatio="xMidYMid meet" version="1.0"><defs><g/></defs><g fill="#ffffff" fill-opacity="1"><g transform="translate(291.950898, 228.346028)"><g><path d="M 1.585938 -51.402344 C 2.578125 -17.464844 23.21875 3.96875 79.183594 3.96875 C 135.746094 3.96875 156.382812 -16.472656 156.382812 -44.257812 C 156.382812 -70.453125 141.898438 -85.535156 83.75 -90.894531 C 71.644531 -92.085938 69.460938 -94.464844 69.460938 -97.046875 C 69.460938 -99.425781 71.445312 -101.410156 77 -101.410156 C 83.351562 -101.410156 86.128906 -98.632812 86.328125 -94.070312 L 154.203125 -94.070312 C 152.8125 -124.632812 130.1875 -148.84375 78.589844 -148.84375 C 23.617188 -148.84375 2.777344 -127.410156 2.777344 -101.410156 C 2.777344 -75.414062 16.867188 -59.734375 73.628906 -54.378906 C 86.128906 -53.1875 88.511719 -50.605469 88.511719 -48.027344 C 88.511719 -45.644531 86.328125 -43.460938 80.574219 -43.460938 C 74.023438 -43.460938 71.246094 -46.242188 71.246094 -51.402344 Z M 1.585938 -51.402344 "/></g></g></g><g fill="#ffffff" fill-opacity="1"><g transform="translate(450.3197, 228.346028)"><g><path d="M 110.34375 -144.875 L 30.960938 -144.875 L -7.9375 0 L 55.566406 0 L 57.949219 -14.488281 L 83.351562 -14.488281 L 85.734375 0 L 149.4375 0 Z M 76.007812 -58.148438 L 65.292969 -58.148438 L 70.652344 -89.703125 Z M 76.007812 -58.148438 "/></g></g></g><g fill="#ffffff" fill-opacity="1"><g transform="translate(591.819661, 228.346028)"><g><path d="M 39.691406 -86.328125 L 39.691406 0 L 108.359375 0 L 108.359375 -86.328125 L 146.066406 -86.328125 L 146.066406 -144.875 L 1.984375 -144.875 L 1.984375 -86.328125 Z M 39.691406 -86.328125 "/></g></g></g><g fill="#ffffff" fill-opacity="1"><g transform="translate(739.868682, 228.346028)"><g><path d="M 4.566406 -52.789062 C 4.566406 -19.449219 28.179688 3.96875 77 3.96875 C 125.820312 3.96875 149.4375 -19.449219 149.4375 -52.789062 L 149.4375 -144.875 L 81.964844 -144.875 L 81.964844 -61.917969 C 81.964844 -55.964844 79.976562 -53.980469 77 -53.980469 C 74.023438 -53.980469 72.039062 -55.964844 72.039062 -61.917969 L 72.039062 -144.875 L 4.566406 -144.875 Z M 4.566406 -52.789062 "/></g></g></g><g fill="#ffffff" fill-opacity="1"><g transform="translate(893.871404, 228.346028)"><g><path d="M 149.4375 -30.960938 C 149.4375 -51.402344 139.117188 -62.316406 115.699219 -65.292969 L 115.699219 -65.6875 C 134.15625 -68.667969 152.019531 -80.574219 152.019531 -104.191406 C 152.019531 -127.011719 133.957031 -144.875 90.101562 -144.875 L 4.960938 -144.875 L 4.960938 0 L 68.863281 0 L 68.863281 -43.660156 L 72.238281 -43.660156 C 77.199219 -43.660156 78.789062 -42.074219 78.789062 -32.347656 L 78.789062 -14.882812 C 78.789062 -7.144531 80.175781 -2.976562 83.152344 0 L 153.605469 0 C 150.429688 -3.769531 149.4375 -7.9375 149.4375 -14.882812 Z M 68.863281 -82.558594 L 68.863281 -93.671875 L 77.796875 -93.671875 C 83.550781 -93.671875 85.335938 -91.886719 85.335938 -87.917969 C 85.335938 -84.34375 83.550781 -82.558594 77.796875 -82.558594 Z M 68.863281 -82.558594 "/></g></g></g><g fill="#ffffff" fill-opacity="1"><g transform="translate(1047.477242, 228.346028)"><g><path d="M 97.441406 -85.933594 L 77.398438 -144.875 L 4.960938 -144.875 L 4.960938 0 L 63.703125 0 L 63.109375 -64.894531 L 88.113281 0 L 155.589844 0 L 155.589844 -144.875 L 96.847656 -144.875 Z M 97.441406 -85.933594 "/></g></g></g></svg>