<svg xmlns="http://www.w3.org/2000/svg" xmlns:xlink="http://www.w3.org/1999/xlink" width="2000" zoomAndPan="magnify" viewBox="0 0 1500 299.999988" height="400" preserveAspectRatio="xMidYMid meet" version="1.0"><defs><g/></defs><g fill="#ffffff" fill-opacity="1"><g transform="translate(396.634487, 228.346028)"><g><path d="M 66.285156 -60.53125 L 58.941406 -105.183594 L -6.945312 -105.183594 L 28.976562 0 L 103.394531 0 L 139.316406 -105.183594 L 73.429688 -105.183594 Z M 66.285156 -60.53125 "/></g></g></g><g fill="#ffffff" fill-opacity="1"><g transform="translate(529.005389, 228.346028)"><g><path d="M 140.707031 -59.539062 C 140.707031 -87.121094 118.675781 -109.152344 71.839844 -109.152344 C 24.410156 -109.152344 1.785156 -86.527344 1.785156 -55.765625 L 1.785156 -49.414062 C 1.785156 -18.65625 24.410156 3.96875 71.246094 3.96875 C 119.867188 3.96875 138.722656 -14.882812 140.109375 -40.683594 L 76.40625 -40.683594 C 76.007812 -38.105469 74.421875 -36.515625 70.652344 -36.515625 C 67.078125 -36.515625 64.5 -38.5 63.703125 -46.636719 L 140.109375 -46.636719 C 140.507812 -50.011719 140.707031 -54.773438 140.707031 -59.539062 Z M 70.847656 -70.847656 C 74.621094 -70.847656 76.804688 -69.460938 77.597656 -63.507812 L 64.300781 -63.507812 C 65.292969 -69.660156 67.476562 -70.847656 70.847656 -70.847656 Z M 70.847656 -70.847656 "/></g></g></g><g fill="#ffffff" fill-opacity="1"><g transform="translate(671.497607, 228.346028)"><g><path d="M 98.632812 -109.152344 C 76.40625 -109.152344 61.324219 -98.039062 56.757812 -71.644531 L 38.5 -105.183594 L 4.761719 -105.183594 L 4.761719 0 L 68.269531 0 L 68.269531 -47.234375 C 68.269531 -53.980469 70.054688 -55.765625 73.230469 -55.765625 C 76.40625 -55.765625 78.191406 -53.980469 78.191406 -47.234375 L 78.191406 0 L 141.699219 0 L 141.699219 -63.507812 C 141.699219 -92.28125 124.828125 -109.152344 98.632812 -109.152344 Z M 98.632812 -109.152344 "/></g></g></g><g fill="#ffffff" fill-opacity="1"><g transform="translate(817.165138, 228.346028)"><g><path d="M 77.398438 -57.949219 C 77.398438 -51.203125 75.613281 -49.414062 72.4375 -49.414062 C 69.261719 -49.414062 67.476562 -51.203125 67.476562 -57.949219 L 67.476562 -105.183594 L 3.96875 -105.183594 L 3.96875 -41.675781 C 3.96875 -12.898438 20.839844 3.96875 48.027344 3.96875 C 69.0625 3.96875 84.34375 -7.144531 88.910156 -33.339844 L 107.167969 0 L 140.90625 0 L 140.90625 -105.183594 L 77.398438 -105.183594 Z M 77.398438 -57.949219 "/></g></g></g><g fill="#ffffff" fill-opacity="1"><g transform="translate(962.832669, 228.346028)"><g><path d="M 0.398438 -36.914062 C 2.382812 -13.695312 20.042969 3.96875 70.253906 3.96875 C 122.648438 3.96875 140.109375 -13.496094 140.109375 -32.148438 C 140.109375 -50.804688 127.011719 -63.703125 77.398438 -65.292969 C 64.695312 -65.6875 62.710938 -67.476562 62.710938 -69.261719 C 62.710938 -71.046875 64.5 -72.4375 69.261719 -72.4375 C 74.023438 -72.4375 75.613281 -70.847656 76.207031 -68.46875 L 138.324219 -68.46875 C 136.339844 -90.894531 118.082031 -109.152344 69.261719 -109.152344 C 17.265625 -109.152344 1.191406 -92.679688 1.191406 -73.628906 C 1.191406 -54.574219 13.695312 -41.675781 62.710938 -40.089844 C 75.414062 -39.691406 77.398438 -37.707031 77.398438 -35.921875 C 77.398438 -34.332031 75.8125 -32.746094 70.652344 -32.746094 C 65.886719 -32.746094 64.300781 -34.332031 63.902344 -36.914062 Z M 0.398438 -36.914062 "/></g></g></g></svg>